<svg xmlns="http://www.w3.org/2000/svg" viewBox="0 0 960 1392" font-family="-apple-system, 'PingFang SC', 'Microsoft YaHei', 'Segoe UI Emoji', sans-serif" width="100%" height="auto" role="img" aria-labelledby="t d">
<title id="t">L30 · 第 30 讲 · AI 编程协作 · 内容地图</title>
<desc id="d">第 30 讲内容地图。横幅 + 核心认知 + 课程坐标（上游/本讲/下游）+ 概念地图（4 个抓手）+ 六幕全景 + 行动指引。viewBox 960，最小字号 14pt。</desc>
<defs><linearGradient id="bg" x1="0" y1="0" x2="0" y2="1"><stop offset="0%" stop-color="#0f172a"/><stop offset="100%" stop-color="#1e293b"/></linearGradient><linearGradient id="banner_30" x1="0" y1="0" x2="1" y2="0"><stop offset="0%" stop-color="#22c55e"/><stop offset="100%" stop-color="#10b981"/></linearGradient><filter id="shadow" x="-10%" y="-10%" width="120%" height="120%"><feGaussianBlur in="SourceAlpha" stdDeviation="3"/><feOffset dx="0" dy="2" result="o"/><feComponentTransfer><feFuncA type="linear" slope="0.3"/></feComponentTransfer><feMerge><feMergeNode/><feMergeNode in="SourceGraphic"/></feMerge></filter><marker id="arrFwd" viewBox="0 0 12 12" refX="11" refY="6" markerWidth="9" markerHeight="9" orient="auto"><path d="M0,0 L12,6 L0,12 z" fill="#22c55e"/></marker><marker id="arrGhost" viewBox="0 0 10 10" refX="9" refY="5" markerWidth="7" markerHeight="7" orient="auto"><path d="M0,0 L10,5 L0,10 z" fill="#475569"/></marker></defs>
<rect width="960" height="1392" fill="url(#bg)"/>
<g><rect x="0" y="0" width="960" height="140" fill="url(#banner_30)" opacity="0.94"/><rect x="40" y="30" width="120" height="80" rx="10" fill="#0f172a" opacity="0.88"/><text x="100" y="72" text-anchor="middle" font-size="28" font-weight="800" fill="#ffffff" letter-spacing="1">L30</text><text x="100" y="96" text-anchor="middle" font-size="14" fill="#cbd5e1">第 30 讲</text><text x="190" y="58" font-size="28" font-weight="800" fill="#0f172a">第 30 讲 · AI 编程协作</text><text x="190" y="86" font-size="16" fill="#0f172a" opacity="0.85">AI Coding — Your Agentic Pair Programmer</text><text x="190" y="112" font-size="14" font-style="italic" fill="#0f172a" opacity="0.78">幕五 · 外部构造（L21-31）★</text><text x="920" y="30" text-anchor="end" font-size="13" fill="#0f172a" opacity="0.75" font-style="italic">内容地图 · Content Map</text></g>
<g transform="translate(40,166)"><rect width="880" height="130" rx="12" fill="#0f172a" stroke="#22c55e" stroke-width="2" filter="url(#shadow)"/><text x="28" y="36" font-size="15" font-weight="700" fill="#22c55e">⚡ 核心认知 · The Central Thesis</text><text x="28" y="86" font-size="22" font-weight="800" fill="#ffffff">「AI 参与度越高，对人类意图表达和判断力的要求反而越高」</text></g>
<g transform="translate(40,322)"><text x="0" y="-4" font-size="15" font-weight="700" fill="#94a3b8">🔗 课程坐标 · Knowledge Flow</text><g transform="translate(0,0)"><rect width="250" height="260" rx="12" fill="#1e293b" stroke="#cbd5e1" stroke-width="1.5" opacity="0.95" filter="url(#shadow)"/><text x="20" y="34" font-size="15" font-weight="700" fill="#cbd5e1">↑ 上游 · 来自</text><text x="230" y="34" text-anchor="end" font-size="12" fill="#64748b" font-style="italic">Inputs</text><g transform="translate(16,64)"><rect width="50" height="28" rx="6" fill="#86efac" opacity="0.9"/><text x="25" y="20" text-anchor="middle" font-size="14" font-weight="700" fill="#0f172a">L21</text><text x="60" y="20" font-size="14" fill="#cbd5e1">Prompt</text></g><g transform="translate(16,114)"><rect width="50" height="28" rx="6" fill="#86efac" opacity="0.9"/><text x="25" y="20" text-anchor="middle" font-size="14" font-weight="700" fill="#0f172a">L26</text><text x="60" y="20" font-size="14" fill="#cbd5e1">PGE</text></g><g transform="translate(16,164)"><rect width="50" height="28" rx="6" fill="#86efac" opacity="0.9"/><text x="25" y="20" text-anchor="middle" font-size="14" font-weight="700" fill="#0f172a">L27</text><text x="60" y="20" font-size="14" fill="#cbd5e1">Skill</text></g></g><g transform="translate(278,0)"><rect width="324" height="260" rx="14" fill="url(#banner_30)" opacity="0.92" filter="url(#shadow)"/><text x="162" y="80" text-anchor="middle" font-size="46" font-weight="800" fill="#0f172a" letter-spacing="1">★ L30</text><text x="162" y="120" text-anchor="middle" font-size="16" font-weight="700" fill="#0f172a">AI 编程协作</text><text x="162" y="168" text-anchor="middle" font-size="15" font-weight="600" fill="#0f172a" opacity="0.9">本讲核心：三代演进</text></g><g transform="translate(630,0)"><rect width="250" height="260" rx="12" fill="#1e293b" stroke="#cbd5e1" stroke-width="1.5" opacity="0.95" filter="url(#shadow)"/><text x="20" y="34" font-size="15" font-weight="700" fill="#cbd5e1">↓ 下游 · 通往</text><text x="230" y="34" text-anchor="end" font-size="12" fill="#64748b" font-style="italic">Outputs</text><text x="125" y="140" text-anchor="middle" font-size="14" fill="#64748b" font-style="italic">（本讲为终点，无显式下游 · 通往）</text></g><line x1="254" y1="130" x2="272" y2="130" stroke="#22c55e" stroke-width="3" marker-end="url(#arrFwd)"/><line x1="606" y1="130" x2="624" y2="130" stroke="#22c55e" stroke-width="3" marker-end="url(#arrFwd)"/></g>
<g transform="translate(40,608)"><text x="0" y="-4" font-size="15" font-weight="700" fill="#94a3b8">🎯 概念地图 · Concept Architecture <tspan font-weight="400" fill="#64748b">（4 个核心抓手）</tspan></text><g transform="translate(0,0)"><rect width="429" height="210" rx="12" fill="#1e293b" stroke="#a855f7" stroke-width="2" filter="url(#shadow)"/><circle cx="38" cy="42" r="22" fill="#a855f7"/><text x="38" y="50" text-anchor="middle" font-size="20" font-weight="800" fill="#0f172a">1</text><text x="76" y="38" font-size="19" font-weight="700" fill="#ffffff">三代演进</text><text x="76" y="60" font-size="14" fill="#a855f7" opacity="0.9">补全 → 对话 → Agentic</text><line x1="22" y1="86" x2="407" y2="86" stroke="#a855f7" stroke-width="1" opacity="0.35"/><text x="22" y="116" font-size="15" fill="#cbd5e1">Copilot → Cursor</text><text x="22" y="140" font-size="15" fill="#cbd5e1">→ Claude Code</text><text x="22" y="164" font-size="15" fill="#cbd5e1">· Devin——能力越来越自主</text><text x="407" y="188" text-anchor="end" font-size="14" font-weight="600" fill="#a855f7">工具横评</text></g><g transform="translate(451,0)"><rect width="429" height="210" rx="12" fill="#1e293b" stroke="#fbbf24" stroke-width="2" filter="url(#shadow)"/><circle cx="38" cy="42" r="22" fill="#fbbf24"/><text x="38" y="50" text-anchor="middle" font-size="20" font-weight="800" fill="#0f172a">2</text><text x="76" y="38" font-size="19" font-weight="700" fill="#ffffff">Agent Loop 深剖</text><text x="76" y="60" font-size="14" fill="#fbbf24" opacity="0.9">上下文→计划→编辑→验证→反思</text><line x1="22" y1="86" x2="407" y2="86" stroke="#fbbf24" stroke-width="1" opacity="0.35"/><text x="22" y="116" font-size="15" fill="#cbd5e1">呼应 L26 PGE——编程是</text><text x="22" y="140" font-size="15" fill="#cbd5e1">PGE 最佳应用场景</text><text x="407" y="188" text-anchor="end" font-size="14" font-weight="600" fill="#fbbf24">← L26 PGE</text></g><g transform="translate(0,232)"><rect width="429" height="210" rx="12" fill="#1e293b" stroke="#f97316" stroke-width="2" filter="url(#shadow)"/><circle cx="38" cy="42" r="22" fill="#f97316"/><text x="38" y="50" text-anchor="middle" font-size="20" font-weight="800" fill="#0f172a">3</text><text x="76" y="38" font-size="19" font-weight="700" fill="#ffffff">高效协作技巧</text><text x="76" y="60" font-size="14" fill="#f97316" opacity="0.9">上下文 / 任务分解 / 审查 / Skill</text><line x1="22" y1="86" x2="407" y2="86" stroke="#f97316" stroke-width="1" opacity="0.35"/><text x="22" y="116" font-size="15" fill="#cbd5e1">把 AI 当初级工程师 +</text><text x="22" y="140" font-size="15" fill="#cbd5e1">资深审查者——不是替代而是放大</text><text x="407" y="188" text-anchor="end" font-size="14" font-weight="600" fill="#f97316">← L27 Skill</text></g><g transform="translate(451,232)"><rect width="429" height="210" rx="12" fill="#1e293b" stroke="#0ea5e9" stroke-width="2" filter="url(#shadow)"/><circle cx="38" cy="42" r="22" fill="#0ea5e9"/><text x="38" y="50" text-anchor="middle" font-size="20" font-weight="800" fill="#0f172a">4</text><text x="76" y="38" font-size="19" font-weight="700" fill="#ffffff">完整 Web App</text><text x="76" y="60" font-size="14" fill="#0ea5e9" opacity="0.9">Claude Code 从零构建</text><line x1="22" y1="86" x2="407" y2="86" stroke="#0ea5e9" stroke-width="1" opacity="0.35"/><text x="22" y="116" font-size="15" fill="#cbd5e1">动手项目：用 AI 协作完成一个生产级应用</text><text x="407" y="188" text-anchor="end" font-size="14" font-weight="600" fill="#0ea5e9">动手项目</text></g></g>
<g transform="translate(40,1076)"><rect width="880" height="130" rx="12" fill="#1e293b" stroke="#475569" stroke-width="1.5" filter="url(#shadow)"/><text x="22" y="28" font-size="14" font-weight="700" fill="#94a3b8">📍 六幕全景 · Where you are in the 35-lecture journey</text><rect x="22.0" y="50" width="119.4" height="38" fill="#fbbf24" opacity="0.55" rx="4"/><text x="81.7" y="68" text-anchor="middle" font-size="13" font-weight="700" fill="#0f172a">幕一 · 计算本质</text><text x="81.7" y="82" text-anchor="middle" font-size="11" fill="#0f172a" opacity="0.78">L01–L05</text><rect x="141.4" y="50" width="143.3" height="38" fill="#f97316" opacity="0.55" rx="4"/><text x="213.1" y="68" text-anchor="middle" font-size="13" font-weight="700" fill="#0f172a">幕二 · 感知语言</text><text x="213.1" y="82" text-anchor="middle" font-size="11" fill="#0f172a" opacity="0.78">L06–L11</text><rect x="284.7" y="50" width="119.4" height="38" fill="#a855f7" opacity="0.55" rx="4"/><text x="344.5" y="68" text-anchor="middle" font-size="13" font-weight="700" fill="#0f172a">幕三 · Transformer</text><text x="344.5" y="82" text-anchor="middle" font-size="11" fill="#0f172a" opacity="0.78">L12–L16</text><rect x="404.2" y="50" width="95.5" height="38" fill="#0ea5e9" opacity="0.55" rx="4"/><text x="451.9" y="68" text-anchor="middle" font-size="13" font-weight="700" fill="#0f172a">幕四 · 内功</text><text x="451.9" y="82" text-anchor="middle" font-size="11" fill="#0f172a" opacity="0.78">L17–L20</text><rect x="499.7" y="50" width="262.7" height="38" fill="#22c55e" opacity="1.0" rx="4"/><text x="631.1" y="68" text-anchor="middle" font-size="13" font-weight="700" fill="#0f172a">幕五 · 外功</text><text x="631.1" y="82" text-anchor="middle" font-size="11" fill="#0f172a" opacity="0.78">L21–L31</text><polygon points="719.6,92 733.6,92 726.6,104" fill="#22c55e"/><text x="726.6" y="120" text-anchor="middle" font-size="13" font-weight="700" fill="#22c55e">★ L30 · 你在这</text><rect x="762.5" y="50" width="95.5" height="38" fill="#22d3ee" opacity="0.55" rx="4"/><text x="810.2" y="68" text-anchor="middle" font-size="13" font-weight="700" fill="#0f172a">幕六 · 未知</text><text x="810.2" y="82" text-anchor="middle" font-size="11" fill="#0f172a" opacity="0.78">L32–L35</text></g>
<g transform="translate(40,1232)"><rect width="880" height="130" rx="12" fill="#0f172a" stroke="#22c55e" stroke-width="2" stroke-dasharray="6 4"/><text x="22" y="32" font-size="14" font-weight="700" fill="#22c55e">🔑 一句话锁定 · 行动指引</text><text x="440" y="70" text-anchor="middle" font-size="18" font-weight="700" font-style="italic" fill="#ffffff">「最好的 AI 编程不是 AI 写完你审，而是你想 AI 做」</text><text x="22" y="108" font-size="14" fill="#cbd5e1">📖 读：<tspan font-weight="600" fill="#ffffff">lecture_notes §3 · Agent Loop</tspan></text><text x="858" y="108" text-anchor="end" font-size="14" fill="#cbd5e1">🛠 跑：<tspan font-weight="600" font-family="ui-monospace, 'Cascadia Code', 'Consolas', monospace" fill="#ffffff">demo/claude_code_session/</tspan></text></g>
<!-- AUDIT · L30 ai-coding · content-map
  [x] viewBox 960 × 1392 (1:1 inside .glance-image)
  [x] min font-size = 14 (footer hints); body ≥ 15pt; titles ≥ 19pt
  [x] anchors = 4 (Miller 5±2)
  [x] flow predecessors = 3, successors = 0
  [x] no external assets; LF EOL
-->
</svg>